{
  "accessors": [
    {
      "bufferView": 2,
      "componentType": 5126,
      "count": 65532,
      "max": [
        0.02789900079369545,
        8.9451427459716797,
        0.82779598236083984
      ],
      "min": [
        -1.8485310077667236,
        7.7897062301635742,
        -1.1115289926528931
      ],
      "type": "VEC3"
    },
    {
      "bufferView": 2,
      "byteOffset": 786384,
      "componentType": 5126,
      "count": 65532,
      "max": [
        1,
        1,
        0.99804693460464478
      ],
      "min": [
        -1,
        -1,
        -0.99984890222549438
      ],
      "type": "VEC3"
    },
    {
      "bufferView": 1,
      "componentType": 5126,
      "count": 65532,
      "max": [
        0.98213297128677368,
        0.99954497814178467
      ],
      "min": [
        0,
        0.00011899999663000926
      ],
      "type": "VEC2"
    },
    {
      "bufferView": 0,
      "componentType": 5125,
      "count": 366165,
      "max": [
        65531
      ],
      "min": [
        0
      ],
      "type": "SCALAR"
    },
    {
      "bufferView": 2,
      "byteOffset": 1572768,
      "componentType": 5126,
      "count": 65532,
      "max": [
        -0.48513498902320862,
        8.9451751708984375,
        0.89390701055526733
      ],
      "min": [
        -1.9823260307312012,
        7.7903351783752441,
        -1.133653998374939
      ],
      "type": "VEC3"
    },
    {
      "bufferView": 2,
      "byteOffset": 2359152,
      "componentType": 5126,
      "count": 65532,
      "max": [
        0.99992430210113525,
        0.99999254941940308,
        0.99998092651367188
      ],
      "min": [
        -0.99999696016311646,
        -0.99994683265686035,
        -0.99985867738723755
      ],
      "type": "VEC3"
    },
    {
      "bufferView": 1,
      "byteOffset": 524256,
      "componentType": 5126,
      "count": 65532,
      "max": [
        0.96463501453399658,
        1
      ],
      "min": [
        0.00068800000008195639,
        0.00025199999799951911
      ],
      "type": "VEC2"
    },
    {
      "bufferView": 0,
      "byteOffset": 1464660,
      "componentType": 5125,
      "count": 346125,
      "max": [
        65531
      ],
      "min": [
        0
      ],
      "type": "SCALAR"
    },
    {
      "bufferView": 2,
      "byteOffset": 3145536,
      "componentType": 5126,
      "count": 28464,
      "max": [
        -0.76899999380111694,
        8.8755912780761719,
        0.89390701055526733
      ],
      "min": [
        -2.2317190170288086,
        7.879216194152832,
        -1.1020740270614624
      ],
      "type": "VEC3"
    },
    {
      "bufferView": 2,
      "byteOffset": 3487104,
      "componentType": 5126,
      "count": 28464,
      "max": [
        0.99695652723312378,
        0.99992096424102783,
        0.99952995777130127
      ],
      "min": [
        -0.99987739324569702,
        -0.99821799993515015,
        -0.99572610855102539
      ],
      "type": "VEC3"
    },
    {
      "bufferView": 1,
      "byteOffset": 1048512,
      "componentType": 5126,
      "count": 28464,
      "max": [
        0.75456398725509644,
        0.96095597743988037
      ],
      "min": [
        0.11575800180435181,
        0.00082499999552965164
      ],
      "type": "VEC2"
    },
    {
      "bufferView": 0,
      "byteOffset": 2849160,
      "componentType": 5125,
      "count": 151320,
      "max": [
        28463
      ],
      "min": [
        0
      ],
      "type": "SCALAR"
    }
  ],
  "asset": {
    "extras": {
      "author": "Digital Atlas of Ancient Life (https://sketchfab.com/DigitalAtlasOfAncientLife)",
      "license": "CC0-1.0 (http://creativecommons.org/publicdomain/zero/1.0/)",
      "source": "https://sketchfab.com/3d-models/argopecten-gibbus-pri-50125-ae909c439e2c42d9a8cce8196513ec9d",
      "title": "Argopecten gibbus (PRI 50125)"
    },
    "generator": "Sketchfab-7.80.0",
    "version": "2.0"
  },
  "bufferViews": [
    {
      "buffer": 0,
      "byteLength": 3454440,
      "byteOffset": 0,
      "name": "floatBufferViews",
      "target": 34963
    },
    {
      "buffer": 0,
      "byteLength": 1276224,
      "byteOffset": 3454440,
      "byteStride": 8,
      "name": "floatBufferViews",
      "target": 34962
    },
    {
      "buffer": 0,
      "byteLength": 3828672,
      "byteOffset": 4730664,
      "byteStride": 12,
      "name": "floatBufferViews",
      "target": 34962
    }
  ],
  "buffers": [
    {
      "byteLength": 8559336,
      "uri": "scene.bin"
    }
  ],
  "extensionsUsed": [
    "KHR_materials_unlit"
  ],
  "images": [
    {
      "uri": "textures/PRI_Argopectengibbus_baseColor.jpeg"
    }
  ],
  "materials": [
    {
      "doubleSided": true,
      "emissiveFactor": [
        0,
        0,
        0
      ],
      "extensions": {
        "KHR_materials_unlit": {}
      },
      "name": "PRI_Argopectengibbus",
      "pbrMetallicRoughness": {
        "baseColorFactor": [
          1,
          1,
          1,
          1
        ],
        "baseColorTexture": {
          "index": 0,
          "texCoord": 0
        },
        "metallicFactor": 0,
        "roughnessFactor": 1
      }
    }
  ],
  "meshes": [
    {
      "primitives": [
        {
          "attributes": {
            "NORMAL": 1,
            "POSITION": 0,
            "TEXCOORD_0": 2
          },
          "indices": 3,
          "material": 0,
          "mode": 4
        }
      ]
    },
    {
      "primitives": [
        {
          "attributes": {
            "NORMAL": 5,
            "POSITION": 4,
            "TEXCOORD_0": 6
          },
          "indices": 7,
          "material": 0,
          "mode": 4
        }
      ]
    },
    {
      "primitives": [
        {
          "attributes": {
            "NORMAL": 9,
            "POSITION": 8,
            "TEXCOORD_0": 10
          },
          "indices": 11,
          "material": 0,
          "mode": 4
        }
      ]
    }
  ],
  "nodes": [
    {
      "children": [
        1
      ],
      "name": "RootNode (gltf orientation matrix)",
      "rotation": [
        -0.70710678118654746,
        -0,
        -0,
        0.70710678118654757
      ]
    },
    {
      "children": [
        2
      ],
      "matrix": [
        0.99857074022293091,
        -0.043081801384687424,
        -0.031630426645278931,
        0,
        -0.029842061921954155,
        -0.94040274620056152,
        0.33875086903572083,
        0,
        -0.044339336454868317,
        -0.33732277154922485,
        -0.94034427404403687,
        0,
        0.24645474553108215,
        16.139171600341797,
        -2.9817991256713867,
        1
      ],
      "name": "RootNode (model correction matrix)"
    },
    {
      "children": [
        3,
        4,
        5
      ],
      "name": "PRI_Argopectengibbus.obj.cleaner.materialmerger.gles"
    },
    {
      "mesh": 0,
      "name": ""
    },
    {
      "mesh": 1,
      "name": ""
    },
    {
      "mesh": 2,
      "name": ""
    }
  ],
  "samplers": [
    {
      "magFilter": 9729,
      "minFilter": 9987,
      "wrapS": 10497,
      "wrapT": 10497
    }
  ],
  "scene": 0,
  "scenes": [
    {
      "name": "OSG_Scene",
      "nodes": [
        0
      ]
    }
  ],
  "textures": [
    {
      "sampler": 0,
      "source": 0
    }
  ]
}

